<mxfile host="app.diagrams.net" modified="2021-12-28T08:32:25.288Z" agent="5.0 (Windows NT 10.0; Win64; x64) AppleWebKit/537.36 (KHTML, like Gecko) Chrome/96.0.4664.110 Safari/537.36" etag="khETXpPXqpyQF35gdL80" version="16.0.3" type="github">
  <diagram id="aShKJb1EcJVqntHxSxEi" name="Page-1">
    <mxGraphModel dx="515" dy="620" grid="1" gridSize="10" guides="1" tooltips="1" connect="1" arrows="1" fold="1" page="1" pageScale="1" pageWidth="827" pageHeight="1169" math="0" shadow="0">
      <root>
        <mxCell id="0" />
        <mxCell id="1" parent="0" />
        <mxCell id="8L_f6q-vc3C_Bcib5PFj-27" value="" style="edgeStyle=orthogonalEdgeStyle;rounded=0;orthogonalLoop=1;jettySize=auto;html=1;" parent="1" edge="1">
          <mxGeometry relative="1" as="geometry">
            <mxPoint x="1039.0285714285715" y="90" as="sourcePoint" />
            <mxPoint x="1039.5" y="120" as="targetPoint" />
          </mxGeometry>
        </mxCell>
        <mxCell id="8L_f6q-vc3C_Bcib5PFj-31" value="insert&lt;br&gt;начало" style="rounded=1;whiteSpace=wrap;html=1;" parent="1" vertex="1">
          <mxGeometry x="999" y="60" width="81" height="30" as="geometry" />
        </mxCell>
        <mxCell id="IL574nIS1ITczs5gziKt-34" value="" style="edgeStyle=orthogonalEdgeStyle;rounded=0;orthogonalLoop=1;jettySize=auto;html=1;entryX=0.5;entryY=0;entryDx=0;entryDy=0;" parent="1" edge="1">
          <mxGeometry relative="1" as="geometry">
            <mxPoint x="1003.51" y="863" as="targetPoint" />
            <Array as="points">
              <mxPoint x="1003.51" y="1100" />
              <mxPoint x="871.51" y="1100" />
              <mxPoint x="871.51" y="840" />
              <mxPoint x="1003.51" y="840" />
            </Array>
          </mxGeometry>
        </mxCell>
        <mxCell id="dGg0gzjNT_DizceMxnT--4" value="1" style="text;html=1;strokeColor=none;fillColor=none;align=center;verticalAlign=middle;whiteSpace=wrap;rounded=0;" parent="1" vertex="1">
          <mxGeometry x="1140" y="60" width="60" height="30" as="geometry" />
        </mxCell>
        <mxCell id="mzG4pojR-hhLDp59LoY9-2" value="2" style="text;html=1;align=center;verticalAlign=middle;resizable=0;points=[];autosize=1;strokeColor=none;fillColor=none;" parent="1" vertex="1">
          <mxGeometry x="1160" y="140" width="20" height="20" as="geometry" />
        </mxCell>
        <mxCell id="mzG4pojR-hhLDp59LoY9-3" value="конец" style="rounded=1;whiteSpace=wrap;html=1;" parent="1" vertex="1">
          <mxGeometry x="1012.5" y="530" width="59.5" height="30" as="geometry" />
        </mxCell>
        <mxCell id="mzG4pojR-hhLDp59LoY9-5" value="3" style="text;html=1;align=center;verticalAlign=middle;resizable=0;points=[];autosize=1;strokeColor=none;fillColor=none;" parent="1" vertex="1">
          <mxGeometry x="1160" y="210" width="20" height="20" as="geometry" />
        </mxCell>
        <mxCell id="mzG4pojR-hhLDp59LoY9-15" value="" style="edgeStyle=orthogonalEdgeStyle;rounded=0;orthogonalLoop=1;jettySize=auto;html=1;" parent="1" target="mzG4pojR-hhLDp59LoY9-14" edge="1">
          <mxGeometry relative="1" as="geometry">
            <mxPoint x="1039.6" y="180" as="sourcePoint" />
          </mxGeometry>
        </mxCell>
        <mxCell id="mzG4pojR-hhLDp59LoY9-11" value="" style="edgeStyle=orthogonalEdgeStyle;rounded=0;orthogonalLoop=1;jettySize=auto;html=1;" parent="1" source="mzG4pojR-hhLDp59LoY9-9" target="mzG4pojR-hhLDp59LoY9-10" edge="1">
          <mxGeometry relative="1" as="geometry" />
        </mxCell>
        <mxCell id="mzG4pojR-hhLDp59LoY9-17" style="edgeStyle=orthogonalEdgeStyle;rounded=0;orthogonalLoop=1;jettySize=auto;html=1;" parent="1" source="mzG4pojR-hhLDp59LoY9-9" edge="1">
          <mxGeometry relative="1" as="geometry">
            <mxPoint x="1040" y="470" as="targetPoint" />
            <Array as="points">
              <mxPoint x="1140" y="280" />
              <mxPoint x="1140" y="450" />
              <mxPoint x="1040" y="450" />
            </Array>
          </mxGeometry>
        </mxCell>
        <mxCell id="mzG4pojR-hhLDp59LoY9-9" value="i &amp;lt; arraySize" style="rhombus;whiteSpace=wrap;html=1;" parent="1" vertex="1">
          <mxGeometry x="990" y="250" width="100" height="60" as="geometry" />
        </mxCell>
        <mxCell id="mzG4pojR-hhLDp59LoY9-19" value="" style="edgeStyle=orthogonalEdgeStyle;rounded=0;orthogonalLoop=1;jettySize=auto;html=1;" parent="1" source="mzG4pojR-hhLDp59LoY9-10" target="mzG4pojR-hhLDp59LoY9-18" edge="1">
          <mxGeometry relative="1" as="geometry" />
        </mxCell>
        <mxCell id="mzG4pojR-hhLDp59LoY9-10" value="&lt;div style=&quot;font-family: &amp;#34;helvetica&amp;#34;&quot;&gt;&amp;nbsp; &amp;nbsp; &amp;nbsp; &amp;nbsp; newArray[i &amp;lt; position ? i : i + 1] = array[i];&lt;/div&gt;" style="whiteSpace=wrap;html=1;" parent="1" vertex="1">
          <mxGeometry x="961.74" y="340" width="155.5" height="30" as="geometry" />
        </mxCell>
        <mxCell id="mzG4pojR-hhLDp59LoY9-16" value="" style="edgeStyle=orthogonalEdgeStyle;rounded=0;orthogonalLoop=1;jettySize=auto;html=1;" parent="1" source="mzG4pojR-hhLDp59LoY9-14" target="mzG4pojR-hhLDp59LoY9-9" edge="1">
          <mxGeometry relative="1" as="geometry" />
        </mxCell>
        <mxCell id="mzG4pojR-hhLDp59LoY9-14" value="i = 0" style="whiteSpace=wrap;html=1;" parent="1" vertex="1">
          <mxGeometry x="1005" y="210" width="70" height="20" as="geometry" />
        </mxCell>
        <mxCell id="mzG4pojR-hhLDp59LoY9-20" style="edgeStyle=orthogonalEdgeStyle;rounded=0;orthogonalLoop=1;jettySize=auto;html=1;" parent="1" source="mzG4pojR-hhLDp59LoY9-18" edge="1">
          <mxGeometry relative="1" as="geometry">
            <mxPoint x="1040" y="250" as="targetPoint" />
            <Array as="points">
              <mxPoint x="1040" y="440" />
              <mxPoint x="950" y="440" />
              <mxPoint x="950" y="240" />
              <mxPoint x="1040" y="240" />
            </Array>
          </mxGeometry>
        </mxCell>
        <mxCell id="mzG4pojR-hhLDp59LoY9-18" value="&lt;div style=&quot;font-family: &amp;#34;helvetica&amp;#34;&quot;&gt;i++&lt;/div&gt;" style="whiteSpace=wrap;html=1;" parent="1" vertex="1">
          <mxGeometry x="1020.87" y="400" width="37.25" height="30" as="geometry" />
        </mxCell>
        <mxCell id="OPilfOc3ENyJEY0nCOCZ-2" value="" style="edgeStyle=orthogonalEdgeStyle;rounded=0;orthogonalLoop=1;jettySize=auto;html=1;" parent="1" source="mzG4pojR-hhLDp59LoY9-21" target="mzG4pojR-hhLDp59LoY9-3" edge="1">
          <mxGeometry relative="1" as="geometry" />
        </mxCell>
        <mxCell id="mzG4pojR-hhLDp59LoY9-21" value="&lt;div style=&quot;font-family: &amp;#34;helvetica&amp;#34;&quot;&gt;newArray[position] = value&lt;/div&gt;" style="whiteSpace=wrap;html=1;" parent="1" vertex="1">
          <mxGeometry x="967.25" y="470" width="150" height="30" as="geometry" />
        </mxCell>
        <mxCell id="mzG4pojR-hhLDp59LoY9-22" value="4" style="text;html=1;align=center;verticalAlign=middle;resizable=0;points=[];autosize=1;strokeColor=none;fillColor=none;" parent="1" vertex="1">
          <mxGeometry x="1160" y="280" width="20" height="20" as="geometry" />
        </mxCell>
        <mxCell id="mzG4pojR-hhLDp59LoY9-23" value="5" style="text;html=1;align=center;verticalAlign=middle;resizable=0;points=[];autosize=1;strokeColor=none;fillColor=none;" parent="1" vertex="1">
          <mxGeometry x="1160" y="340" width="20" height="20" as="geometry" />
        </mxCell>
        <mxCell id="mzG4pojR-hhLDp59LoY9-24" value="6" style="text;html=1;align=center;verticalAlign=middle;resizable=0;points=[];autosize=1;strokeColor=none;fillColor=none;" parent="1" vertex="1">
          <mxGeometry x="1160" y="410" width="20" height="20" as="geometry" />
        </mxCell>
        <mxCell id="mzG4pojR-hhLDp59LoY9-25" value="7" style="text;html=1;align=center;verticalAlign=middle;resizable=0;points=[];autosize=1;strokeColor=none;fillColor=none;" parent="1" vertex="1">
          <mxGeometry x="1160" y="480" width="20" height="20" as="geometry" />
        </mxCell>
        <mxCell id="mzG4pojR-hhLDp59LoY9-26" value="8" style="text;html=1;align=center;verticalAlign=middle;resizable=0;points=[];autosize=1;strokeColor=none;fillColor=none;" parent="1" vertex="1">
          <mxGeometry x="1160" y="535" width="20" height="20" as="geometry" />
        </mxCell>
        <mxCell id="OPilfOc3ENyJEY0nCOCZ-1" value="newArray = new double[arraySize + 1]" style="rounded=0;whiteSpace=wrap;html=1;" parent="1" vertex="1">
          <mxGeometry x="980" y="120" width="120" height="60" as="geometry" />
        </mxCell>
      </root>
    </mxGraphModel>
  </diagram>
</mxfile>
